# xmcd CD database file
#
# Track frame offsets:
#	150
#	12174
#	26232
#	39120
#	54712
#	72336
#	90325
#	98915
#	120543
#	132073
#	145823
#	169194
#	181319
#	196159
#	211882
#	226247
#	237626
#
# Disc length: 3391 seconds
#
# Revision: 0
# Processed by: cddbd v1.5.2PL0 Copyright (c) Steve Scherf et al.
# Submitted via: CDex 1.51
#
DISCID=e10d3d11
DTITLE=Country Harmony - Your Health Is Your Wealth
DYEAR=1900
DGENRE=Country
TTITLE0=Your Health Is Your Wealth
TTITLE1=Hey Mr Rich Man
TTITLE2=Guitar Boogie Shuffle
TTITLE3=The Queen of Country Music
TTITLE4=Grandad
TTITLE5=My Connemara Home
TTITLE6=Lets Dance
TTITLE7=Cottage By The Sea
TTITLE8=Jimmy's Song
TTITLE9=The Lakeland Convoy
TTITLE10=Medley
TTITLE11=Bring Me Back To Old Ireland
TTITLE12=Flash The Lights At Me
TTITLE13=Midnight To Moonlight
TTITLE14=The Hugo Song
TTITLE15=Here I Am I'm Drunk Again
TTITLE16=Irish Medley
EXTD=
EXTT0=
EXTT1=
EXTT2=
EXTT3=
EXTT4=
EXTT5=
EXTT6=
EXTT7=
EXTT8=
EXTT9=
EXTT10=
EXTT11=
EXTT12=
EXTT13=
EXTT14=
EXTT15=
EXTT16=
PLAYORDER=
